<?xml version="1.0" encoding="UTF-8" standalone="no"?>
<!-- Created with Inkscape (http://www.inkscape.org/) -->

<svg
   width="259.03247mm"
   height="107.53336mm"
   viewBox="0 0 259.03247 107.53336"
   version="1.1"
   id="svg1"
   xmlns="http://www.w3.org/2000/svg"
   xmlns:svg="http://www.w3.org/2000/svg">
  <defs
     id="defs1" />
  <g
     id="layer1"
     transform="translate(-54.439572,-29.565723)">
    <path
       id="path59"
       style="display:inline;fill:#e1ad01;fill-opacity:1;stroke-width:0.227702"
       d="m 77.852,131.92648 c -0.314765,0.013 -0.314816,0.0859 -0.314816,0.37764 0,0.38898 4.8e-5,1.16693 -1.790456,1.55591 -1.790497,0.38898 -5.371353,0.38919 -7.48806,0.88338 -2.116697,0.49418 -2.769303,1.48234 1.549353,1.98386 1.699014,0.1973 5.606075,0.3216 9.702233,0.37182 4.096157,-0.0502 8.003225,-0.17452 9.702234,-0.37182 4.318656,-0.50152 3.666056,-1.48968 1.549352,-1.98386 -2.116706,-0.49419 -5.697556,-0.4944 -7.48806,-0.88338 -1.790503,-0.38898 -1.790456,-1.16693 -1.790456,-1.55591 0,-0.38898 -8.1e-5,-0.38893 -0.746144,-0.37639 -0.313925,0.006 -0.759984,0.0128 -1.226926,0.052 -0.466945,-0.0392 -0.913002,-0.0464 -1.226927,-0.052 -0.186514,-0.003 -0.326405,-0.006 -0.431327,-0.002 z" />
    <path
       id="rect44"
       style="display:inline;fill:#e1ad01;fill-opacity:1;stroke-width:0.221784"
       d="m 78.247272,102.71096 c -2.15017,-0.0172 -4.254761,0.0635 -5.367631,0.25075 -2.19048,0.36857 -0.538221,1.15017 0.701249,1.57782 1.23947,0.42765 2.065753,0.50141 2.572453,0.84805 0.5067,0.34665 0.694009,0.96584 0.787549,3.05251 0.09355,2.08665 0.09369,5.64034 0.156062,7.43941 0.0076,0.21868 0.01622,0.41172 0.02635,0.58166 v 18.8263 h 4.864303 v -25.63811 c 0.01235,-0.48405 0.0271,-0.93654 0.04547,-1.33439 0.09354,-2.02551 0.280849,-2.62657 0.787549,-2.96306 0.5067,-0.33648 1.332983,-0.40801 2.572453,-0.82312 1.23947,-0.41512 2.891729,-1.17411 0.701249,-1.53188 -1.11287,-0.18176 -3.217461,-0.26006 -5.367631,-0.24341 v 1.56511 h -2.479435 z" />
    <path
       id="path15"
       style="fill:#e1ad01;fill-opacity:1;stroke-width:0.275279"
       d="m 91.370652,55.530506 v 10e-4 l -23.88226,0.162264 -2.92902,0.01654 c -0.14376,0.006 -0.36674,0.0068 -0.59635,0.05064 -0.31892,0.06098 -0.65198,0.197642 -0.81493,0.476974 l -0.20878,0.450101 -0.47542,1.102775 -6.10609,12.675712 a 25,25 0 0 0 -1.91823,9.533269 25,25 0 0 0 25.00003,25.000029 25,25 0 0 0 25.000018,-25.000029 25,25 0 0 0 -1.96525,-9.533269 l -5.805848,-12.252482 -0.05736,-0.138492 -0.04703,-0.115756 -0.23977,-0.555521 -0.36587,-0.82734 -0.14211,-0.341064 c -0.07098,-0.191817 -0.12421,-0.371004 -0.27027,-0.486792 -0.1899,-0.150534 -0.34362,-0.208261 -0.63924,-0.194821 l -3.38739,-0.02274 v -10e-4 l -0.0739,5.17e-4 z m 0.6904,3.627169 c 0.16982,0.007 0.43518,-0.04932 1.1343,0.356567 0.12346,0.07464 0.33832,0.230425 0.48937,0.353467 0.06566,0.05345 0.11549,0.104874 0.15865,0.151929 l 5.69061,12.008569 a 21.5,21.5 0 0 1 1.405598,7.644495 21.5,21.5 0 0 1 -21.499978,21.499978 21.5,21.5 0 0 1 -21.49998,-21.499978 21.5,21.5 0 0 1 1.39526,-7.619173 21.5,21.5 0 0 1 5.2e-4,-0.0016 l 5.82393,-12.089701 c 0.0069,-0.0144 0.01519,-0.0281 0.02429,-0.04134 0.0369,-0.05384 0.08984,-0.09858 0.15245,-0.136943 0.0665,-0.04074 0.14284,-0.08811 0.21239,-0.124023 0.1665,-0.08599 0.31178,-0.155806 0.42581,-0.202055 0.34031,-0.138032 0.65073,-0.222233 0.9896,-0.266133 0.24449,-0.03167 0.64382,-0.02894 0.88987,-0.02894 h 0.17467 22.93968 0.1819 c 0.24606,0 0.76852,-0.01101 0.91106,-0.0052 z" />
    <path
       id="path21-1"
       style="display:inline;fill:#e1ad01;fill-opacity:1;stroke-width:0.305309"
       d="m 64.079142,72.601465 c -2.08898,0.137031 -2.685149,1.243078 -3.106963,2.462486 -0.09267,0.267893 -0.190964,0.716289 -0.222749,0.99916 -0.07256,0.645751 -0.126049,1.295065 -0.160419,1.946378 -0.015,0.284366 -0.03185,0.745805 -0.03909,1.0305 -0.0037,0.142277 -0.0067,0.350714 -0.0064,0.46558 l -4.84e-4,0.25733 h 0.0049 c 0.671556,8.908548 5.345525,15.568307 12.076937,18.332668 0.254851,0.104658 0.672733,0.261784 0.932909,0.351179 0.154611,0.05312 0.316917,0.107095 0.472481,0.15712 0.261757,0.08418 0.689747,0.208402 0.955703,0.277007 9.000447,2.321727 18.278284,-2.721712 21.819592,-11.865577 0.102316,-0.264187 0.2564,-0.697419 0.340366,-0.968494 0.0498,-0.160785 0.09984,-0.329711 0.146257,-0.491626 0.07823,-0.272883 0.195449,-0.718255 0.267875,-0.992923 0.0191,-0.07243 0.09334,-0.353823 0.159702,-0.630136 0.0394,-0.16403 0.07911,-0.336023 0.11504,-0.500866 0.06052,-0.277686 0.140105,-0.732058 0.181416,-1.013592 0.06661,-0.453946 0.118623,-0.910202 0.156026,-1.367955 0.02319,-0.283768 0.04924,-0.74478 0.06071,-1.029322 0.0057,-0.1425 0.01011,-0.336671 0.009,-0.433737 l 0.002,-0.289056 h -0.0073 c -0.07765,-1.690746 -0.144053,-2.498504 -0.231388,-3.230939 -0.0337,-0.282661 -0.281602,-0.457059 -0.548066,-0.390576 -4.070194,1.015503 -8.192249,1.966564 -13.636963,1.271144 -0.271938,-0.03473 -0.71201,-0.09818 -0.982882,-0.141316 -1.666181,-0.265313 -3.442059,-0.671565 -5.220009,-1.128986 -0.26588,-0.0684 -0.48115,-0.125202 -0.48115,-0.125481 h -0.002 c -4.347134,-1.15727 -8.130885,-2.353057 -10.719363,-2.786175 -0.270223,-0.04522 -0.710556,-0.105929 -0.983415,-0.132107 -0.123808,-0.01188 -0.243959,-0.02137 -0.360572,-0.02858 -0.273519,-0.0169 -0.495825,-0.01723 -0.495799,-0.01723 z" />
    <path
       id="path7"
       style="display:inline;fill:#e1ad01;fill-opacity:1;stroke-width:0.189025"
       d="m 79.446316,43.565902 a 12.5,12.5 0 0 0 -10.6531,5.985681 12.5,12.5 0 0 0 -0.12919,0.19017 l 0.0026,0.0016 a 1.75,1.75 0 0 0 -0.23151,0.869198 1.75,1.75 0 0 0 1.75028,1.749763 1.75,1.75 0 0 0 1.51412,-0.879532 l 10e-4,5.16e-4 a 9,9 0 0 1 0.03359,-0.05633 9,9 0 0 1 7.71219,-4.360974 9,9 0 0 1 7.73235,4.394564 1.75,1.75 0 0 0 1.51566,0.874882 1.75,1.75 0 0 0 1.74977,-1.750281 1.75,1.75 0 0 0 -0.37207,-1.077454 12.5,12.5 0 0 0 -10.62571,-5.941756 z" />
    <path
       id="path7-6"
       style="display:inline;fill:#e1ad01;fill-opacity:1;stroke-width:0.189025"
       d="m 79.446316,36.565813 a 19.5,19.5 0 0 0 -16.72094,9.494511 1.75,1.75 0 0 0 -0.13384,0.198954 1.75,1.75 0 0 0 -0.23152,0.870748 1.75,1.75 0 0 0 1.74977,1.749764 1.75,1.75 0 0 0 1.51825,-0.879533 16,16 0 0 1 13.81828,-7.9344 16,16 0 0 1 13.79502,7.894092 l 5.2e-4,-5.17e-4 a 1.75,1.75 0 0 0 1.51464,0.875399 1.75,1.75 0 0 0 1.75028,-1.749764 1.75,1.75 0 0 0 -0.23616,-0.873848 l 0.0016,-10e-4 a 19.5,19.5 0 0 0 -16.8259,-9.644406 z" />
    <path
       id="path7-1"
       style="display:inline;fill:#e1ad01;fill-opacity:1;stroke-width:0.189025"
       d="m 79.446316,29.565723 a 26.5,26.5 0 0 0 -22.79551,13.01471 1.75,1.75 0 0 0 -0.13177,0.19637 1.75,1.75 0 0 0 -0.23151,0.870748 1.75,1.75 0 0 0 1.74976,1.749764 1.75,1.75 0 0 0 1.51825,-0.879016 23,23 0 0 1 19.89078,-11.452531 23,23 0 0 1 19.85719,11.394653 1.75,1.75 0 0 0 1.515664,0.874882 1.75,1.75 0 0 0 1.74976,-1.750281 1.75,1.75 0 0 0 -0.36587,-1.070735 26.5,26.5 0 0 0 -22.756744,-12.948564 z" />
    <text
       xml:space="preserve"
       style="font-size:55.3372px;text-align:center;writing-mode:lr-tb;direction:ltr;text-anchor:middle;display:inline;fill:#e1ad01;fill-opacity:1;stroke-width:4.61145"
       x="196.00996"
       y="109.11596"
       id="text1"
       transform="scale(1.0719017,0.93292135)"><tspan
         style="font-style:normal;font-variant:normal;font-weight:normal;font-stretch:condensed;font-family:Arial;-inkscape-font-specification:'Arial Condensed';fill:#e1ad01;fill-opacity:1;stroke-width:4.61145"
         x="196.00996"
         y="109.11596"
         id="tspan2">BarSonar</tspan></text>
  </g>
</svg>
